<?xml version="1.0" standalone="no"?>
<!DOCTYPE svg PUBLIC "-//W3C//DTD SVG 20010904//EN"
 "http://www.w3.org/TR/2001/REC-SVG-20010904/DTD/svg10.dtd">
<svg version="1.0" xmlns="http://www.w3.org/2000/svg"
 width="256.000000pt" height="256.000000pt" viewBox="0 0 256.000000 256.000000"
 preserveAspectRatio="xMidYMid meet">
<metadata>
Created by potrace 1.14, written by Peter Selinger 2001-2017
</metadata>
<g transform="translate(0.000000,256.000000) scale(0.100000,-0.100000)"
fill="#000000" stroke="none">
<path d="M1058 2479 c-7 -4 -36 -9 -63 -13 -120 -14 -263 -87 -360 -184 -107
-107 -282 -366 -325 -480 -29 -78 -66 -208 -75 -262 -11 -76 -14 -252 -4 -315
5 -33 12 -80 15 -105 6 -50 40 -158 56 -177 5 -7 7 -16 4 -22 -3 -5 -3 -11 2
-13 14 -6 72 -130 65 -140 -3 -7 -1 -8 5 -4 7 4 12 2 12 -3 0 -20 3 -26 18
-37 8 -6 12 -16 8 -23 -4 -6 -4 -10 1 -9 4 2 9 -1 10 -5 1 -5 18 -23 37 -41
20 -18 36 -38 36 -44 0 -7 7 -12 16 -12 14 0 15 -2 3 -17 -9 -10 -9 -14 -2
-10 13 8 60 -32 55 -46 -1 -5 2 -6 7 -3 5 3 23 -8 41 -24 18 -17 36 -30 41
-30 5 0 9 -7 9 -16 0 -11 5 -14 16 -10 11 4 18 -1 21 -14 3 -11 9 -17 14 -14
5 3 9 0 9 -7 0 -7 11 -10 28 -7 19 3 29 0 29 -9 0 -6 -5 -9 -10 -6 -6 3 -7 1
-3 -6 6 -9 11 -9 22 0 11 9 14 9 14 -1 0 -8 3 -11 6 -7 4 3 13 0 20 -8 15 -15
19 -29 6 -21 -5 3 -9 -1 -9 -8 0 -7 6 -13 13 -13 7 0 11 4 8 9 -4 5 9 7 27 5
21 -2 33 -9 31 -17 -2 -8 3 -10 14 -6 12 4 15 2 11 -9 -8 -19 5 -26 23 -13 12
8 12 9 -3 4 -10 -3 -15 -2 -12 3 7 12 44 10 42 -2 -1 -5 4 -12 12 -15 10 -3
11 0 5 9 -7 12 -5 12 9 0 9 -7 17 -10 17 -6 0 4 6 2 14 -4 7 -6 22 -9 32 -5
16 5 17 4 4 -6 -13 -10 -11 -11 7 -7 14 3 20 1 17 -7 -3 -8 4 -12 18 -12 15 1
22 -4 20 -13 -2 -10 1 -12 10 -5 15 12 118 17 118 6 0 -4 8 -12 18 -19 15 -9
19 -8 19 3 0 7 -4 11 -8 8 -4 -2 -11 1 -15 8 -4 7 -4 10 1 6 4 -4 14 -3 21 3
8 7 14 6 20 -2 5 -8 3 -9 -6 -4 -9 5 -11 4 -6 -4 6 -9 11 -9 23 1 14 11 15 10
9 -12 -6 -19 -5 -21 3 -10 6 8 11 11 11 6 0 -5 10 -1 22 10 12 10 18 13 13 5
-5 -9 -3 -12 6 -9 8 3 13 11 11 17 -1 7 2 10 8 6 6 -3 8 -10 5 -15 -3 -5 0
-12 6 -16 7 -4 9 -3 6 3 -4 6 4 18 18 27 17 11 26 13 31 4 4 -6 3 -8 -3 -5 -6
4 -16 1 -21 -6 -9 -10 -2 -13 32 -12 24 0 42 4 39 9 -3 5 0 6 8 4 8 -3 13 -11
11 -17 -1 -7 2 -10 8 -6 6 3 8 10 5 15 -3 5 4 8 15 7 11 -1 20 -6 20 -12 0 -5
5 -2 11 8 5 9 15 17 20 17 6 0 7 -4 4 -10 -3 -5 -1 -11 4 -11 6 -1 17 -2 24
-3 6 -1 21 3 32 10 11 6 28 10 38 9 9 -2 15 1 11 6 -3 5 0 9 6 9 6 0 8 5 5 10
-3 6 -2 10 3 10 14 0 23 -28 11 -34 -5 -2 -4 -3 3 -2 7 2 11 12 10 22 -3 15
-1 16 9 7 13 -13 47 -1 61 20 4 7 12 6 22 -2 21 -17 21 -4 1 16 -9 8 -14 20
-12 27 5 15 30 14 33 -2 1 -7 0 -8 -3 -2 -2 5 -9 10 -15 10 -6 0 -3 -9 7 -20
10 -11 25 -19 34 -19 13 1 12 2 -2 6 -15 4 -16 7 -6 19 10 12 14 12 20 2 4 -7
11 -9 16 -5 11 11 -17 26 -36 19 -14 -5 -14 -4 -2 11 13 16 16 16 37 2 13 -8
27 -15 31 -15 4 0 0 5 -9 11 -10 5 -18 18 -18 27 1 16 2 16 14 0 7 -10 17 -18
21 -18 4 0 1 7 -6 16 -11 14 -10 19 10 35 13 11 28 19 35 18 6 0 1 -7 -11 -16
-24 -16 -30 -33 -12 -33 5 0 7 5 3 12 -5 8 -2 9 10 5 9 -4 14 -3 11 2 -3 5 -1
13 5 16 8 5 8 11 0 20 -7 8 -9 19 -6 24 4 5 1 13 -5 17 -8 4 -9 3 -5 -4 4 -8
2 -10 -8 -6 -9 4 -20 -5 -29 -23 -9 -15 -18 -27 -21 -25 -17 7 -24 -1 -21 -23
2 -19 -1 -23 -10 -15 -6 5 -14 7 -17 5 -8 -8 -58 13 -58 25 0 5 5 10 11 10 5
0 7 -4 4 -10 -9 -15 27 -11 49 5 11 8 14 15 8 15 -7 0 -12 4 -12 10 0 5 7 7
15 4 8 -4 15 -1 15 5 0 10 -14 15 -33 12 -5 -1 -6 3 -2 9 9 15 48 -8 41 -25
-3 -9 0 -12 9 -8 8 3 13 9 10 13 -3 4 1 10 9 13 14 6 16 30 3 43 -10 11 -8 34
3 34 5 0 7 -6 4 -14 -4 -11 0 -13 15 -9 26 7 26 12 4 30 -16 13 -16 13 5 3 17
-8 21 -16 16 -32 -4 -13 -2 -18 4 -14 6 3 14 1 18 -5 5 -8 3 -9 -6 -4 -9 6
-11 4 -5 -5 6 -9 4 -11 -6 -5 -12 7 -12 5 -1 -6 18 -20 35 7 20 34 -5 11 -6
17 -1 14 5 -4 10 7 10 22 0 37 34 82 50 67 7 -6 19 -17 28 -24 8 -7 12 -19 9
-25 -4 -7 -4 -9 1 -5 4 4 15 2 24 -5 14 -10 14 -10 3 4 -10 14 -10 18 5 24 10
5 21 8 24 7 3 0 6 5 6 13 0 8 -3 13 -6 11 -9 -6 -31 21 -24 28 4 3 17 -1 30
-9 13 -9 23 -11 23 -5 0 5 -3 10 -8 10 -4 0 -13 9 -20 21 -12 19 -11 20 10 15
13 -3 17 -3 10 0 -6 3 -10 10 -6 15 3 5 14 5 27 -2 21 -9 21 -9 4 5 -14 10
-16 19 -10 31 6 9 13 16 16 16 4 -1 7 1 7 4 0 3 0 8 0 11 0 4 -7 1 -15 -6 -9
-8 -15 -9 -15 -2 0 6 5 14 10 17 13 8 13 25 0 25 -6 0 -9 -3 -9 -7 3 -21 -2
-26 -12 -13 -8 12 -9 10 -4 -9 5 -17 4 -21 -5 -16 -9 6 -9 3 -1 -13 15 -29 14
-37 -5 -22 -8 8 -14 9 -13 4 3 -18 -1 -34 -8 -33 -20 3 -33 -2 -33 -12 0 -8 4
-8 13 0 10 8 14 7 14 -4 0 -8 -4 -12 -8 -9 -4 2 -6 -5 -4 -16 3 -13 0 -18 -7
-14 -7 5 -8 2 -3 -6 6 -9 4 -11 -5 -5 -9 6 -11 4 -5 -6 7 -11 5 -11 -11 1 -29
22 -30 24 -12 17 10 -3 20 -2 23 3 6 10 -8 14 -34 10 -8 -1 -1 10 15 23 24 21
27 27 15 41 -9 11 -10 16 -2 16 6 0 11 -4 11 -8 0 -4 9 -8 19 -9 11 -1 18 4
17 12 -3 19 -16 32 -16 16 0 -7 -5 -9 -11 -6 -6 4 3 20 23 38 18 18 32 35 31
38 -1 4 8 5 20 2 17 -4 19 -2 7 6 -12 8 -12 12 2 28 8 10 24 29 34 42 10 13
27 32 37 43 9 10 15 18 13 18 -3 0 6 24 18 53 45 100 61 199 60 362 -1 111 -5
166 -18 210 -42 144 -230 450 -350 570 -94 93 -313 258 -401 300 -38 18 -99
39 -135 46 -70 13 -421 20 -442 8z m1072 -1801 c0 -4 -7 -8 -16 -8 -9 0 -12
-5 -8 -12 4 -7 3 -8 -4 -4 -15 9 -5 33 13 33 8 0 15 -4 15 -9z m-49 -55 c-12
-20 -14 -14 -5 12 4 9 9 14 11 11 3 -2 0 -13 -6 -23z m-29 -30 c-6 -3 -10 -9
-7 -14 4 -5 -2 -6 -12 -2 -16 6 -16 5 -4 -10 8 -10 11 -20 7 -24 -3 -3 -6 -1
-6 6 0 7 -4 10 -9 7 -5 -4 -8 1 -7 9 2 17 38 46 46 38 3 -3 -1 -8 -8 -10z
m123 -9 c-23 -17 -32 -10 -15 11 7 8 17 12 23 8 6 -4 3 -11 -8 -19z m-216
-100 c4 3 8 -1 8 -9 0 -8 -4 -15 -9 -15 -4 0 -8 5 -8 11 0 5 -4 7 -10 4 -6 -4
-7 1 -3 11 4 11 8 13 11 6 2 -7 7 -10 11 -8z m-76 -51 c-3 -7 -6 -13 -8 -13
-2 0 -5 6 -8 13 -3 8 1 14 8 14 7 0 11 -6 8 -14z m127 6 c0 -12 -20 -31 -52
-49 -14 -8 -16 -7 -12 4 3 9 11 14 17 13 6 -1 16 8 22 21 10 23 25 30 25 11z
m-119 -32 c-10 -9 -11 -8 -5 6 3 10 9 15 12 12 3 -3 0 -11 -7 -18z m-84 -12
c0 -8 -4 -12 -9 -9 -5 3 -6 10 -3 15 9 13 12 11 12 -6z m71 -28 c6 0 12 -5 12
-10 0 -5 8 -3 18 4 15 13 16 12 3 -3 -7 -10 -17 -15 -23 -12 -13 8 -40 -17
-34 -32 6 -17 -43 -56 -58 -47 -23 15 -46 12 -56 -6 -5 -11 -18 -18 -27 -17
-10 2 -21 -2 -25 -7 -10 -17 -36 -16 -42 0 -5 12 -1 14 14 10 14 -3 20 -1 17
6 -5 17 -40 15 -53 -2 -12 -16 -48 -25 -38 -10 8 13 -10 11 -23 -2 -10 -10
-12 0 -4 29 1 1 11 -2 23 -9 18 -10 20 -9 14 7 -5 17 -5 18 7 2 12 -15 14 -15
26 4 11 18 14 18 36 4 34 -22 45 -19 16 4 -13 11 -19 20 -13 20 6 0 17 -7 26
-15 8 -8 17 -12 19 -7 8 11 -19 43 -28 34 -5 -4 -5 -1 0 7 6 11 12 9 26 -10 9
-13 15 -27 13 -31 -3 -4 0 -8 5 -8 6 0 11 5 11 10 0 6 7 10 16 10 11 0 14 5
10 16 -6 15 -4 15 16 1 13 -8 22 -21 20 -27 -1 -6 2 -9 8 -5 7 4 7 12 0 24 -5
10 -6 22 -2 26 4 5 0 6 -9 3 -9 -4 -16 -1 -16 7 0 11 5 11 20 3 17 -9 19 -8
13 8 -8 20 12 37 34 28 8 -4 21 -7 28 -7z m-110 -32 c-3 -3 -9 2 -12 12 -6 14
-5 15 5 6 7 -7 10 -15 7 -18z m-25 -3 c3 7 4 3 4 -9 -1 -13 -4 -23 -7 -23 -3
0 -11 10 -19 23 -13 20 -13 21 1 9 13 -10 17 -10 21 0z m-203 -88 c0 -2 -9 -8
-20 -14 -15 -8 -18 -8 -14 3 4 11 34 21 34 11z"/>
<path d="M1825 360 c-3 -5 2 -10 12 -10 15 0 14 -2 -5 -16 -18 -12 -21 -19
-11 -30 12 -15 33 -9 23 7 -3 6 2 20 13 31 10 12 12 18 6 14 -7 -4 -13 -2 -13
3 0 14 -17 14 -25 1z"/>
<path d="M1776 292 c-3 -5 1 -9 9 -9 8 0 12 4 9 9 -3 4 -7 8 -9 8 -2 0 -6 -4
-9 -8z"/>
<path d="M1706 262 c-3 -5 1 -9 9 -9 8 0 12 4 9 9 -3 4 -7 8 -9 8 -2 0 -6 -4
-9 -8z"/>
<path d="M2274 836 c5 -13 2 -17 -9 -13 -8 4 -16 3 -19 -1 -3 -4 4 -8 14 -9
25 -2 32 9 18 27 -8 12 -9 11 -4 -4z"/>
<path d="M2270 761 c0 -6 4 -13 10 -16 6 -3 7 1 4 9 -7 18 -14 21 -14 7z"/>
<path d="M2184 749 c-3 -6 -2 -15 3 -20 5 -5 9 -1 10 11 2 22 -2 25 -13 9z"/>
<path d="M2276 715 c-3 -9 -11 -13 -17 -9 -8 5 -9 3 -4 -5 6 -10 11 -9 23 3 9
8 13 18 10 21 -3 3 -8 -1 -12 -10z"/>
<path d="M2280 680 c-9 -6 -10 -10 -3 -10 6 0 15 5 18 10 8 12 4 12 -15 0z"/>
<path d="M2316 673 c-6 -14 -5 -15 5 -6 7 7 10 15 7 18 -3 3 -9 -2 -12 -12z"/>
<path d="M2230 650 c-9 -6 -10 -10 -3 -10 6 0 15 5 18 10 8 12 4 12 -15 0z"/>
<path d="M2130 646 c0 -2 7 -7 16 -10 8 -3 12 -2 9 4 -6 10 -25 14 -25 6z"/>
<path d="M2255 640 c-3 -5 -1 -10 4 -10 6 0 11 5 11 10 0 6 -2 10 -4 10 -3 0
-8 -4 -11 -10z"/>
<path d="M2080 585 c-14 -17 -21 -85 -7 -82 5 1 12 -4 15 -12 3 -8 0 -11 -7
-7 -7 5 -9 1 -4 -10 4 -12 3 -15 -5 -10 -7 4 -12 2 -12 -3 0 -19 17 -12 34 13
8 14 25 28 37 31 l22 7 -24 14 c-13 7 -18 13 -11 14 19 0 14 38 -7 49 -14 8
-22 7 -31 -4z m40 -25 c0 -5 -5 -12 -12 -16 -8 -5 -6 -11 6 -19 15 -12 15 -13
0 -19 -22 -8 -34 1 -27 21 4 11 3 14 -5 9 -7 -4 -12 -2 -12 3 0 6 5 11 10 11
6 0 9 3 9 8 -3 16 2 21 16 16 8 -4 15 -10 15 -14z"/>
<path d="M2093 555 c0 -8 4 -12 9 -9 5 3 6 10 3 15 -9 13 -12 11 -12 -6z"/>
<path d="M2180 520 c8 -5 20 -10 25 -10 6 0 3 5 -5 10 -8 5 -19 10 -25 10 -5
0 -3 -5 5 -10z"/>
<path d="M1993 485 c0 -9 4 -14 9 -13 5 2 10 8 10 13 0 5 -5 11 -10 13 -5 1
-9 -4 -9 -13z"/>
<path d="M2115 449 c-4 -6 -5 -12 -2 -15 2 -3 7 2 10 11 7 17 1 20 -8 4z"/>
<path d="M635 440 c3 -5 8 -10 11 -10 2 0 4 5 4 10 0 6 -5 10 -11 10 -5 0 -7
-4 -4 -10z"/>
<path d="M2030 446 c0 -2 7 -9 15 -16 13 -11 14 -10 9 4 -5 14 -24 23 -24 12z"/>
<path d="M1905 390 c-3 -6 1 -7 9 -4 18 7 21 14 7 14 -6 0 -13 -4 -16 -10z"/>
<path d="M2066 378 c3 -4 9 -8 15 -8 5 0 9 4 9 8 0 5 -7 9 -15 9 -8 0 -12 -4
-9 -9z"/>
<path d="M2020 360 c-8 -5 -10 -10 -5 -10 6 0 17 5 25 10 8 5 11 10 5 10 -5 0
-17 -5 -25 -10z"/>
<path d="M790 340 c0 -5 7 -7 15 -4 8 4 15 8 15 10 0 2 -7 4 -15 4 -8 0 -15
-4 -15 -10z"/>
<path d="M1993 325 c0 -8 4 -12 9 -9 5 3 6 10 3 15 -9 13 -12 11 -12 -6z"/>
<path d="M897 289 c7 -7 15 -10 18 -7 3 3 -2 9 -12 12 -14 6 -15 5 -6 -5z"/>
<path d="M970 260 c0 -5 5 -10 11 -10 5 0 7 5 4 10 -3 6 -8 10 -11 10 -2 0 -4
-4 -4 -10z"/>
<path d="M1005 260 c-3 -5 4 -7 15 -5 11 2 24 -3 30 -13 5 -9 10 -12 10 -5 0
21 -45 40 -55 23z"/>
<path d="M1855 261 c-3 -5 -2 -12 3 -15 5 -3 9 1 9 9 0 17 -3 19 -12 6z"/>
<path d="M1238 213 c7 -3 16 -2 19 1 4 3 -2 6 -13 5 -11 0 -14 -3 -6 -6z"/>
<path d="M1476 193 c-6 -14 -5 -15 5 -6 7 7 10 15 7 18 -3 3 -9 -2 -12 -12z"/>
</g>
</svg>
